<svg width="88" height="88" viewBox="0 0 88 88" fill="none" xmlns="http://www.w3.org/2000/svg">
<g filter="url(#filter0_d_315_239)">
<circle cx="44" cy="40" r="40" fill="#BA0C2F"/>
</g>
<path d="M30.2854 19.0908C29.8268 19.0908 29.4551 19.4556 29.4551 19.9057C29.4551 20.3557 29.8268 20.7205 30.2854 20.7205H33.4856L36.3399 33.9365C36.4528 34.434 36.785 34.848 37.2048 34.8447H51.0436C51.4823 34.8507 51.8857 34.4604 51.8857 34.0299C51.8857 33.5993 51.4823 33.2089 51.0436 33.215H37.8794L37.5248 31.5853L52.1507 31.5853C52.5225 31.5826 52.8737 31.3047 52.9551 30.9487L54.8925 22.8001C55.0005 22.3272 54.582 21.8105 54.0881 21.807L35.4231 21.807L34.9733 19.7359C34.8947 19.3741 34.5372 19.0904 34.1603 19.0908H30.2854ZM35.769 23.4367H40.8029V25.8813H36.2966L35.769 23.4367ZM42.4635 23.4367L46.3384 23.4367V25.8813L42.4635 25.8813V23.4367ZM47.9991 23.4367H53.0416L52.4621 25.8813H47.9991V23.4367ZM36.6512 27.511H40.8029V29.9556H37.1788L36.6512 27.511ZM42.4635 27.511L46.3384 27.511V29.9556L42.4635 29.9556V27.511ZM47.9991 27.511H52.0729L51.4934 29.9556H47.9991V27.511ZM40.2493 35.9312C38.7306 35.9312 37.4816 37.1569 37.4816 38.6474C37.4816 40.1378 38.7306 41.3635 40.2493 41.3635C41.7681 41.3635 43.0171 40.1378 43.0171 38.6474C43.0171 37.1569 41.7681 35.9312 40.2493 35.9312ZM47.9991 35.9312C46.4803 35.9312 45.2313 37.1569 45.2313 38.6474C45.2313 40.1378 46.4803 41.3635 47.9991 41.3635C49.5178 41.3635 50.7668 40.1378 50.7668 38.6474C50.7668 37.1569 49.5178 35.9312 47.9991 35.9312ZM40.2493 37.5609C40.8706 37.5609 41.3564 38.0377 41.3564 38.6474C41.3564 39.257 40.8706 39.7338 40.2493 39.7338C39.6281 39.7338 39.1422 39.257 39.1422 38.6474C39.1422 38.0377 39.6281 37.5609 40.2493 37.5609ZM47.9991 37.5609C48.6203 37.5609 49.1062 38.0377 49.1062 38.6474C49.1062 39.257 48.6203 39.7338 47.9991 39.7338C47.3778 39.7338 46.892 39.257 46.892 38.6474C46.892 38.0377 47.3778 37.5609 47.9991 37.5609Z" fill="white"/>
<path d="M21.4468 49.0819C19.8768 49.0819 19.0068 49.9219 19.0068 51.2119C19.0068 52.3919 19.5668 53.0419 21.2268 53.4419C22.2368 53.6819 22.4068 53.9019 22.4068 54.2619C22.4068 54.5319 22.2268 54.9119 21.4068 54.9119C20.5468 54.9119 19.6968 54.7119 19.1268 54.4219C19.0368 54.5719 18.9368 54.8119 18.9368 55.0919C18.9368 55.3919 19.0168 55.6219 19.2968 55.8319C19.6968 56.1319 20.3668 56.2819 21.4568 56.2819C23.2668 56.2819 23.9268 55.3619 23.9268 54.1319C23.9268 52.9819 23.2768 52.4219 21.8368 52.0719C20.6968 51.7919 20.5268 51.4719 20.5268 51.1519C20.5268 50.7419 20.8568 50.4519 21.4568 50.4519C22.3468 50.4519 22.9668 50.7919 23.3668 51.0019C23.5068 50.7919 23.6368 50.5719 23.6368 50.3019C23.6368 50.0819 23.5868 49.8419 23.3568 49.6319C23.0468 49.3519 22.5368 49.0819 21.4468 49.0819ZM29.9478 49.1819C29.6478 49.1819 29.2878 49.2419 29.1478 49.3119V51.8819H26.6078V49.6919C26.6078 49.3019 26.3078 49.1819 25.9378 49.1819C25.6278 49.1819 25.2878 49.2319 25.1278 49.3119V55.5019C25.1278 56.0919 25.4478 56.1819 25.7578 56.1819C26.0978 56.1819 26.5178 56.1119 26.6078 56.0219V53.2319H29.1478V55.5019C29.1478 56.0919 29.5178 56.1819 29.9378 56.1819C30.1678 56.1819 30.5278 56.1219 30.6278 56.0519V49.6919C30.6278 49.3019 30.3278 49.1819 29.9478 49.1819ZM31.8274 52.6919C31.8274 55.2219 33.1774 56.2819 34.8674 56.2819C36.5474 56.2819 37.8974 55.2719 37.8974 52.6919C37.8974 50.1219 36.5774 49.0819 34.8574 49.0819C33.2074 49.0819 31.8274 50.1219 31.8274 52.6919ZM33.3474 52.7319C33.3474 51.0019 34.0674 50.4519 34.8574 50.4519C35.6974 50.4519 36.3774 51.0019 36.3774 52.7319C36.3774 54.4319 35.7474 54.9119 34.8674 54.9119C34.0874 54.9119 33.3474 54.3919 33.3474 52.7319ZM39.8326 49.1819C39.4626 49.1819 39.2826 49.2119 39.0926 49.2919V55.5119C39.0926 56.0519 39.3926 56.1819 39.7526 56.1819C40.0926 56.1819 40.4326 56.1319 40.5726 56.0519V53.6719L41.7626 53.6719C42.7026 53.6719 44.1526 53.2919 44.1526 51.3019C44.1526 49.6919 42.9326 49.1819 41.8826 49.1819H39.8326ZM41.6826 50.4319C42.1826 50.4319 42.6326 50.6619 42.6326 51.4219C42.6326 52.1419 42.2226 52.4219 41.5426 52.4219L40.5726 52.4219V50.4319H41.6826ZM51.3867 55.8019C51.5467 56.0319 51.7767 56.1819 52.0967 56.1819C52.4867 56.1819 52.7367 56.1319 52.8567 56.0619V49.6819C52.8567 49.2919 52.4267 49.1719 52.0867 49.1719C51.7367 49.1719 51.5167 49.2419 51.3667 49.3619L51.4067 53.5019L48.7467 49.5619C48.6167 49.3619 48.3867 49.1819 48.0567 49.1819C47.7467 49.1819 47.4467 49.2319 47.2567 49.3119V55.5119C47.2567 56.1019 47.5767 56.1919 47.8867 56.1919C48.2267 56.1919 48.6467 56.1219 48.7367 56.0319L48.6667 51.8819L51.3867 55.8019ZM54.0539 52.6919C54.0539 55.2219 55.4039 56.2819 57.0939 56.2819C58.7739 56.2819 60.1239 55.2719 60.1239 52.6919C60.1239 50.1219 58.8039 49.0819 57.0839 49.0819C55.4339 49.0819 54.0539 50.1219 54.0539 52.6919ZM55.5739 52.7319C55.5739 51.0019 56.2939 50.4519 57.0839 50.4519C57.9239 50.4519 58.6039 51.0019 58.6039 52.7319C58.6039 54.4319 57.9739 54.9119 57.0939 54.9119C56.3139 54.9119 55.5739 54.3919 55.5739 52.7319ZM66.7592 55.6119C66.9092 56.0219 67.1192 56.1819 67.4692 56.1819C67.7092 56.1819 67.9192 56.1519 68.1192 56.0819C69.5392 53.6019 69.9192 51.1219 70.0192 50.4319C70.0992 49.9119 70.1192 49.6819 70.1192 49.5619C70.1192 49.3219 69.8492 49.1819 69.5792 49.1819C69.1992 49.1819 68.9592 49.2319 68.7392 49.3419C68.6692 50.2719 68.4192 52.3319 67.6892 54.0119L66.3692 49.6619C66.2692 49.3319 65.8892 49.1819 65.5092 49.1819C65.1292 49.1819 64.9192 49.2519 64.7492 49.3419C64.3792 51.1519 63.9592 52.7919 63.4792 54.0019L62.3092 49.6619C62.2092 49.3019 61.8292 49.1819 61.4492 49.1819C61.0692 49.1819 60.7392 49.2519 60.5692 49.3419L62.4492 55.6119C62.5992 56.0219 62.8092 56.1819 63.1592 56.1819C63.3992 56.1819 63.6992 56.1419 63.8992 56.0719C64.6592 54.5319 65.0192 53.2619 65.5092 51.5219L66.7592 55.6119Z" fill="white"/>
<defs>
<filter id="filter0_d_315_239" x="0" y="0" width="88" height="88" filterUnits="userSpaceOnUse" color-interpolation-filters="sRGB">
<feFlood flood-opacity="0" result="BackgroundImageFix"/>
<feColorMatrix in="SourceAlpha" type="matrix" values="0 0 0 0 0 0 0 0 0 0 0 0 0 0 0 0 0 0 127 0" result="hardAlpha"/>
<feOffset dy="4"/>
<feGaussianBlur stdDeviation="2"/>
<feComposite in2="hardAlpha" operator="out"/>
<feColorMatrix type="matrix" values="0 0 0 0 0 0 0 0 0 0 0 0 0 0 0 0 0 0 0.25 0"/>
<feBlend mode="normal" in2="BackgroundImageFix" result="effect1_dropShadow_315_239"/>
<feBlend mode="normal" in="SourceGraphic" in2="effect1_dropShadow_315_239" result="shape"/>
</filter>
</defs>
</svg>
